<svg width="1360" height="94" viewBox="0 0 1360 94" fill="none" xmlns="http://www.w3.org/2000/svg">
<path d="M1171.29 30V13.2H1172.75L1180.43 26.304H1179.67L1187.27 13.2H1188.74V30H1187.03V15.864H1187.44L1180.43 27.864H1179.59L1172.54 15.864H1172.99V30H1171.29ZM1199.39 30.12C1198.08 30.12 1196.93 29.848 1195.93 29.304C1194.94 28.744 1194.17 27.984 1193.61 27.024C1193.05 26.048 1192.77 24.936 1192.77 23.688C1192.77 22.44 1193.03 21.336 1193.56 20.376C1194.1 19.416 1194.84 18.664 1195.77 18.12C1196.71 17.56 1197.77 17.28 1198.93 17.28C1200.12 17.28 1201.17 17.552 1202.08 18.096C1203.01 18.624 1203.73 19.376 1204.26 20.352C1204.79 21.312 1205.05 22.424 1205.05 23.688C1205.05 23.768 1205.05 23.856 1205.03 23.952C1205.03 24.032 1205.03 24.12 1205.03 24.216H1194.06V22.944H1204.12L1203.45 23.448C1203.45 22.536 1203.25 21.728 1202.85 21.024C1202.46 20.304 1201.93 19.744 1201.26 19.344C1200.59 18.944 1199.81 18.744 1198.93 18.744C1198.07 18.744 1197.29 18.944 1196.61 19.344C1195.92 19.744 1195.38 20.304 1195 21.024C1194.61 21.744 1194.42 22.568 1194.42 23.496V23.76C1194.42 24.72 1194.63 25.568 1195.05 26.304C1195.48 27.024 1196.07 27.592 1196.82 28.008C1197.59 28.408 1198.46 28.608 1199.44 28.608C1200.21 28.608 1200.92 28.472 1201.57 28.2C1202.25 27.928 1202.82 27.512 1203.3 26.952L1204.26 28.056C1203.7 28.728 1203 29.24 1202.15 29.592C1201.32 29.944 1200.4 30.12 1199.39 30.12ZM1217.21 29.184V18.888H1211.14L1210.99 21.696C1210.96 22.544 1210.9 23.376 1210.82 24.192C1210.76 25.008 1210.64 25.76 1210.46 26.448C1210.3 27.12 1210.07 27.672 1209.77 28.104C1209.46 28.52 1209.07 28.76 1208.59 28.824L1206.89 28.512C1207.38 28.528 1207.79 28.352 1208.11 27.984C1208.43 27.6 1208.68 27.08 1208.86 26.424C1209.03 25.768 1209.16 25.024 1209.24 24.192C1209.32 23.344 1209.38 22.48 1209.43 21.6L1209.6 17.4H1218.91V29.184H1217.21ZM1206.36 33.048V28.512H1220.88V33.048H1219.27V30H1207.97V33.048H1206.36ZM1224.2 30V17.4H1225.91V27.408L1234.33 17.4H1235.84V30H1234.14V19.968L1225.74 30H1224.2ZM1248.55 30V27.216L1248.48 26.76V22.104C1248.48 21.032 1248.17 20.208 1247.56 19.632C1246.97 19.056 1246.08 18.768 1244.9 18.768C1244.08 18.768 1243.31 18.904 1242.57 19.176C1241.84 19.448 1241.21 19.808 1240.7 20.256L1239.93 18.984C1240.57 18.44 1241.34 18.024 1242.24 17.736C1243.13 17.432 1244.08 17.28 1245.07 17.28C1246.7 17.28 1247.96 17.688 1248.84 18.504C1249.73 19.304 1250.18 20.528 1250.18 22.176V30H1248.55ZM1244.2 30.12C1243.26 30.12 1242.44 29.968 1241.73 29.664C1241.04 29.344 1240.52 28.912 1240.15 28.368C1239.78 27.808 1239.6 27.168 1239.6 26.448C1239.6 25.792 1239.75 25.2 1240.05 24.672C1240.37 24.128 1240.88 23.696 1241.59 23.376C1242.31 23.04 1243.27 22.872 1244.47 22.872H1248.81V24.144H1244.52C1243.3 24.144 1242.45 24.36 1241.97 24.792C1241.51 25.224 1241.28 25.76 1241.28 26.4C1241.28 27.12 1241.56 27.696 1242.12 28.128C1242.68 28.56 1243.46 28.776 1244.47 28.776C1245.43 28.776 1246.25 28.56 1246.94 28.128C1247.64 27.68 1248.16 27.04 1248.48 26.208L1248.86 27.384C1248.54 28.216 1247.98 28.88 1247.18 29.376C1246.4 29.872 1245.4 30.12 1244.2 30.12ZM1253.73 24.24V22.752H1260.02V24.24H1253.73ZM1273.12 30L1267.94 23.76L1269.35 22.92L1275.14 30H1273.12ZM1263.88 30V17.4H1265.59V30H1263.88ZM1265.06 24.384V22.92H1269.11V24.384H1265.06ZM1269.5 23.88L1267.91 23.64L1272.93 17.4H1274.78L1269.5 23.88ZM1282.57 30.12C1281.35 30.12 1280.25 29.848 1279.28 29.304C1278.32 28.744 1277.56 27.984 1277 27.024C1276.44 26.048 1276.16 24.936 1276.16 23.688C1276.16 22.424 1276.44 21.312 1277 20.352C1277.56 19.392 1278.32 18.64 1279.28 18.096C1280.24 17.552 1281.33 17.28 1282.57 17.28C1283.81 17.28 1284.92 17.552 1285.88 18.096C1286.85 18.64 1287.61 19.392 1288.16 20.352C1288.72 21.312 1289 22.424 1289 23.688C1289 24.936 1288.72 26.048 1288.16 27.024C1287.61 27.984 1286.85 28.744 1285.88 29.304C1284.9 29.848 1283.8 30.12 1282.57 30.12ZM1282.57 28.608C1283.48 28.608 1284.29 28.408 1284.99 28.008C1285.69 27.592 1286.25 27.016 1286.65 26.28C1287.06 25.528 1287.27 24.664 1287.27 23.688C1287.27 22.696 1287.06 21.832 1286.65 21.096C1286.25 20.36 1285.69 19.792 1284.99 19.392C1284.29 18.976 1283.49 18.768 1282.59 18.768C1281.69 18.768 1280.89 18.976 1280.19 19.392C1279.49 19.792 1278.93 20.36 1278.51 21.096C1278.09 21.832 1277.89 22.696 1277.89 23.688C1277.89 24.664 1278.09 25.528 1278.51 26.28C1278.93 27.016 1279.49 27.592 1280.19 28.008C1280.89 28.408 1281.69 28.608 1282.57 28.608ZM1292.64 30V17.4H1294.34V22.968H1302.29V17.4H1303.99V30H1302.29V24.432H1294.34V30H1292.64ZM1311.23 30V18.432L1311.67 18.888H1306.46V17.4H1317.71V18.888H1312.51L1312.94 18.432V30H1311.23ZM1324.99 30.12C1323.68 30.12 1322.53 29.848 1321.54 29.304C1320.54 28.744 1319.77 27.984 1319.21 27.024C1318.65 26.048 1318.37 24.936 1318.37 23.688C1318.37 22.44 1318.63 21.336 1319.16 20.376C1319.7 19.416 1320.44 18.664 1321.37 18.12C1322.31 17.56 1323.37 17.28 1324.54 17.28C1325.72 17.28 1326.77 17.552 1327.68 18.096C1328.61 18.624 1329.34 19.376 1329.86 20.352C1330.39 21.312 1330.66 22.424 1330.66 23.688C1330.66 23.768 1330.65 23.856 1330.63 23.952C1330.63 24.032 1330.63 24.12 1330.63 24.216H1319.66V22.944H1329.72L1329.05 23.448C1329.05 22.536 1328.85 21.728 1328.45 21.024C1328.06 20.304 1327.54 19.744 1326.86 19.344C1326.19 18.944 1325.42 18.744 1324.54 18.744C1323.67 18.744 1322.9 18.944 1322.21 19.344C1321.52 19.744 1320.98 20.304 1320.6 21.024C1320.22 21.744 1320.02 22.568 1320.02 23.496V23.76C1320.02 24.72 1320.23 25.568 1320.65 26.304C1321.08 27.024 1321.67 27.592 1322.42 28.008C1323.19 28.408 1324.06 28.608 1325.04 28.608C1325.81 28.608 1326.52 28.472 1327.18 28.2C1327.85 27.928 1328.42 27.512 1328.9 26.952L1329.86 28.056C1329.3 28.728 1328.6 29.24 1327.75 29.592C1326.92 29.944 1326 30.12 1324.99 30.12ZM1334.43 30V17.4H1336.13V22.968H1344.08V17.4H1345.78V30H1344.08V24.432H1336.13V30H1334.43ZM1353.02 30V18.432L1353.46 18.888H1348.25V17.4H1359.5V18.888H1354.3L1354.73 18.432V30H1353.02Z" fill="white" fill-opacity="0.6"/>
<path d="M14.832 87H12.24L4.488 78.312V87H2.328V69.864H4.488V78.168L12.048 69.864H14.496L7.056 78.192L14.832 87ZM21.7479 73.92C23.3159 73.92 24.4759 74.264 25.2279 74.952C25.9799 75.64 26.3559 76.736 26.3559 78.24V87H24.8199L24.4119 85.176H24.3159C23.9479 85.64 23.5639 86.032 23.1639 86.352C22.7799 86.656 22.3319 86.88 21.8199 87.024C21.3239 87.168 20.7159 87.24 19.9959 87.24C19.2279 87.24 18.5319 87.104 17.9079 86.832C17.2999 86.56 16.8199 86.144 16.4679 85.584C16.1159 85.008 15.9399 84.288 15.9399 83.424C15.9399 82.144 16.4439 81.16 17.4519 80.472C18.4599 79.768 20.0119 79.384 22.1079 79.32L24.2919 79.248V78.48C24.2919 77.408 24.0599 76.664 23.5959 76.248C23.1319 75.832 22.4759 75.624 21.6279 75.624C20.9559 75.624 20.3159 75.728 19.7079 75.936C19.0999 76.128 18.5319 76.352 18.0039 76.608L17.3559 75.024C17.9159 74.72 18.5799 74.464 19.3479 74.256C20.1159 74.032 20.9159 73.92 21.7479 73.92ZM22.3719 80.784C20.7719 80.848 19.6599 81.104 19.0359 81.552C18.4279 82 18.1239 82.632 18.1239 83.448C18.1239 84.168 18.3399 84.696 18.7719 85.032C19.2199 85.368 19.7879 85.536 20.4759 85.536C21.5639 85.536 22.4679 85.24 23.1879 84.648C23.9079 84.04 24.2679 83.112 24.2679 81.864V80.712L22.3719 80.784ZM37.9371 74.136H40.2411L34.7451 80.328L40.6971 87H38.2491L32.4411 80.472V87H30.3291V74.136H32.4411V80.376L37.9371 74.136ZM48.9399 87.24C48.2039 87.24 47.5639 87.176 47.0199 87.048C46.4919 86.936 45.9959 86.768 45.5319 86.544V84.72C46.0119 84.912 46.5319 85.08 47.0919 85.224C47.6519 85.368 48.2839 85.44 48.9879 85.44C49.8199 85.44 50.5399 85.296 51.1479 85.008C51.7559 84.704 52.2359 84.24 52.5879 83.616C52.9399 82.992 53.1399 82.2 53.1879 81.24H46.8519V79.512H53.1639C53.0519 78.2 52.6759 77.24 52.0359 76.632C51.4119 76.024 50.4919 75.72 49.2759 75.72C48.8119 75.72 48.2999 75.784 47.7399 75.912C47.1959 76.04 46.7079 76.184 46.2759 76.344L45.6759 74.64C46.1399 74.432 46.6919 74.256 47.3319 74.112C47.9719 73.968 48.6119 73.896 49.2519 73.896C50.4519 73.896 51.5079 74.12 52.4199 74.568C53.3479 75.016 54.0679 75.728 54.5799 76.704C55.1079 77.68 55.3719 78.968 55.3719 80.568C55.3719 82.088 55.0919 83.344 54.5319 84.336C53.9879 85.328 53.2279 86.064 52.2519 86.544C51.2919 87.008 50.1879 87.24 48.9399 87.24ZM67.3809 75.912H63.1809V87H61.0929V75.912H56.9409V74.136H67.3809V75.912ZM80.8646 80.544C80.8646 81.616 80.7206 82.568 80.4326 83.4C80.1606 84.216 79.7606 84.912 79.2326 85.488C78.7206 86.064 78.0886 86.504 77.3366 86.808C76.6006 87.096 75.7766 87.24 74.8646 87.24C74.0166 87.24 73.2326 87.096 72.5126 86.808C71.7926 86.504 71.1686 86.064 70.6406 85.488C70.1126 84.912 69.6966 84.216 69.3926 83.4C69.1046 82.568 68.9606 81.616 68.9606 80.544C68.9606 79.12 69.2006 77.92 69.6806 76.944C70.1606 75.952 70.8486 75.2 71.7446 74.688C72.6406 74.16 73.7046 73.896 74.9366 73.896C76.1046 73.896 77.1286 74.16 78.0086 74.688C78.9046 75.2 79.6006 75.952 80.0966 76.944C80.6086 77.92 80.8646 79.12 80.8646 80.544ZM71.1446 80.544C71.1446 81.552 71.2726 82.432 71.5286 83.184C71.8006 83.92 72.2166 84.488 72.7766 84.888C73.3366 85.288 74.0486 85.488 74.9126 85.488C75.7766 85.488 76.4886 85.288 77.0486 84.888C77.6086 84.488 78.0166 83.92 78.2726 83.184C78.5446 82.432 78.6806 81.552 78.6806 80.544C78.6806 79.52 78.5446 78.648 78.2726 77.928C78.0006 77.208 77.5846 76.656 77.0246 76.272C76.4806 75.872 75.7686 75.672 74.8886 75.672C73.5766 75.672 72.6246 76.104 72.0326 76.968C71.4406 77.832 71.1446 79.024 71.1446 80.544ZM87.3836 79.272C87.3836 77.4 87.5676 75.808 87.9356 74.496C88.3196 73.168 88.9036 72.112 89.6876 71.328C90.4876 70.528 91.5116 69.992 92.7596 69.72C93.7996 69.496 94.8156 69.296 95.8076 69.12C96.7996 68.944 97.7276 68.784 98.5916 68.64L98.9516 70.488C98.5356 70.552 98.0716 70.632 97.5596 70.728C97.0476 70.808 96.5276 70.896 95.9996 70.992C95.4716 71.072 94.9596 71.16 94.4636 71.256C93.9836 71.336 93.5596 71.416 93.1916 71.496C92.6636 71.608 92.1916 71.8 91.7756 72.072C91.3596 72.328 90.9996 72.68 90.6956 73.128C90.4076 73.576 90.1756 74.128 89.9996 74.784C89.8236 75.44 89.7196 76.216 89.6876 77.112H89.8316C90.0556 76.808 90.3596 76.496 90.7436 76.176C91.1436 75.856 91.6156 75.584 92.1596 75.36C92.7196 75.136 93.3516 75.024 94.0556 75.024C95.1756 75.024 96.1036 75.272 96.8396 75.768C97.5916 76.248 98.1516 76.92 98.5196 77.784C98.9036 78.648 99.0956 79.656 99.0956 80.808C99.0956 82.232 98.8476 83.424 98.3516 84.384C97.8556 85.344 97.1676 86.064 96.2876 86.544C95.4076 87.008 94.3836 87.24 93.2156 87.24C92.3356 87.24 91.5356 87.072 90.8156 86.736C90.0956 86.384 89.4796 85.872 88.9676 85.2C88.4556 84.528 88.0636 83.696 87.7916 82.704C87.5196 81.712 87.3836 80.568 87.3836 79.272ZM93.3836 85.488C94.0876 85.488 94.6956 85.344 95.2076 85.056C95.7356 84.768 96.1436 84.296 96.4316 83.64C96.7196 82.984 96.8636 82.112 96.8636 81.024C96.8636 79.712 96.6156 78.68 96.1196 77.928C95.6396 77.16 94.8396 76.776 93.7196 76.776C93.0156 76.776 92.3756 76.936 91.7996 77.256C91.2236 77.56 90.7436 77.912 90.3596 78.312C89.9756 78.712 89.7036 79.048 89.5436 79.32C89.5436 80.104 89.5996 80.864 89.7116 81.6C89.8236 82.336 90.0156 83 90.2876 83.592C90.5756 84.168 90.9676 84.632 91.4636 84.984C91.9756 85.32 92.6156 85.488 93.3836 85.488ZM102.423 87V74.136H104.535V79.416H107.871C108.991 79.416 109.911 79.552 110.631 79.824C111.351 80.096 111.887 80.504 112.239 81.048C112.591 81.576 112.767 82.248 112.767 83.064C112.767 83.864 112.591 84.56 112.239 85.152C111.903 85.744 111.367 86.2 110.631 86.52C109.911 86.84 108.959 87 107.775 87H102.423ZM107.583 85.296C108.495 85.296 109.239 85.144 109.815 84.84C110.391 84.52 110.679 83.968 110.679 83.184C110.679 82.4 110.415 81.872 109.887 81.6C109.359 81.312 108.599 81.168 107.607 81.168H104.535V85.296H107.583ZM114.903 87V74.136H117.015V87H114.903ZM130.895 87H128.759V75.888H124.967C124.807 77.92 124.607 79.656 124.367 81.096C124.127 82.52 123.823 83.68 123.455 84.576C123.087 85.472 122.647 86.128 122.135 86.544C121.623 86.96 121.023 87.168 120.335 87.168C120.127 87.168 119.919 87.152 119.711 87.12C119.519 87.104 119.359 87.064 119.231 87V85.416C119.327 85.448 119.431 85.472 119.543 85.488C119.655 85.504 119.767 85.512 119.879 85.512C120.231 85.512 120.551 85.368 120.839 85.08C121.127 84.792 121.383 84.352 121.607 83.76C121.847 83.168 122.063 82.424 122.255 81.528C122.447 80.616 122.615 79.544 122.759 78.312C122.903 77.08 123.031 75.688 123.143 74.136H130.895V87ZM146.161 80.544C146.161 81.616 146.018 82.568 145.73 83.4C145.458 84.216 145.058 84.912 144.53 85.488C144.018 86.064 143.386 86.504 142.634 86.808C141.898 87.096 141.074 87.24 140.162 87.24C139.314 87.24 138.53 87.096 137.81 86.808C137.09 86.504 136.466 86.064 135.938 85.488C135.41 84.912 134.994 84.216 134.69 83.4C134.402 82.568 134.258 81.616 134.258 80.544C134.258 79.12 134.498 77.92 134.978 76.944C135.458 75.952 136.146 75.2 137.042 74.688C137.938 74.16 139.002 73.896 140.234 73.896C141.402 73.896 142.426 74.16 143.306 74.688C144.202 75.2 144.898 75.952 145.394 76.944C145.906 77.92 146.161 79.12 146.161 80.544ZM136.442 80.544C136.442 81.552 136.57 82.432 136.826 83.184C137.098 83.92 137.514 84.488 138.074 84.888C138.634 85.288 139.346 85.488 140.21 85.488C141.074 85.488 141.786 85.288 142.346 84.888C142.906 84.488 143.314 83.92 143.57 83.184C143.842 82.432 143.978 81.552 143.978 80.544C143.978 79.52 143.842 78.648 143.57 77.928C143.298 77.208 142.882 76.656 142.322 76.272C141.778 75.872 141.066 75.672 140.186 75.672C138.874 75.672 137.922 76.104 137.33 76.968C136.738 77.832 136.442 79.024 136.442 80.544ZM159.473 73.896C161.057 73.896 162.329 74.448 163.289 75.552C164.265 76.656 164.753 78.32 164.753 80.544C164.753 82 164.529 83.232 164.081 84.24C163.648 85.232 163.033 85.984 162.233 86.496C161.449 86.992 160.521 87.24 159.449 87.24C158.793 87.24 158.209 87.152 157.697 86.976C157.185 86.8 156.745 86.576 156.377 86.304C156.025 86.016 155.721 85.704 155.465 85.368H155.321C155.353 85.64 155.385 85.984 155.417 86.4C155.449 86.816 155.465 87.176 155.465 87.48V92.76H153.353V74.136H155.081L155.369 75.888H155.465C155.721 75.52 156.025 75.184 156.377 74.88C156.745 74.576 157.177 74.336 157.673 74.16C158.185 73.984 158.785 73.896 159.473 73.896ZM159.089 75.672C158.225 75.672 157.529 75.84 157.001 76.176C156.473 76.496 156.089 76.984 155.849 77.64C155.609 78.296 155.481 79.128 155.465 80.136V80.544C155.465 81.6 155.577 82.496 155.801 83.232C156.025 83.968 156.401 84.528 156.929 84.912C157.473 85.296 158.209 85.488 159.137 85.488C159.921 85.488 160.561 85.272 161.057 84.84C161.569 84.408 161.945 83.824 162.185 83.088C162.441 82.336 162.569 81.48 162.569 80.52C162.569 79.048 162.281 77.872 161.705 76.992C161.145 76.112 160.273 75.672 159.089 75.672ZM172.99 73.92C174.558 73.92 175.718 74.264 176.47 74.952C177.222 75.64 177.598 76.736 177.598 78.24V87H176.062L175.654 85.176H175.558C175.19 85.64 174.806 86.032 174.406 86.352C174.022 86.656 173.574 86.88 173.062 87.024C172.566 87.168 171.958 87.24 171.238 87.24C170.47 87.24 169.774 87.104 169.15 86.832C168.542 86.56 168.062 86.144 167.71 85.584C167.358 85.008 167.182 84.288 167.182 83.424C167.182 82.144 167.686 81.16 168.694 80.472C169.702 79.768 171.254 79.384 173.35 79.32L175.534 79.248V78.48C175.534 77.408 175.302 76.664 174.838 76.248C174.374 75.832 173.718 75.624 172.87 75.624C172.198 75.624 171.558 75.728 170.95 75.936C170.342 76.128 169.774 76.352 169.246 76.608L168.598 75.024C169.158 74.72 169.822 74.464 170.59 74.256C171.358 74.032 172.158 73.92 172.99 73.92ZM173.614 80.784C172.014 80.848 170.902 81.104 170.278 81.552C169.67 82 169.366 82.632 169.366 83.448C169.366 84.168 169.582 84.696 170.014 85.032C170.462 85.368 171.03 85.536 171.718 85.536C172.806 85.536 173.71 85.24 174.43 84.648C175.15 84.04 175.51 83.112 175.51 81.864V80.712L173.614 80.784ZM183.683 74.136V79.488H190.667V74.136H192.779V87H190.667V81.264H183.683V87H181.571V74.136H183.683ZM202.781 79.416C203.901 79.416 204.829 79.552 205.565 79.824C206.301 80.096 206.853 80.504 207.221 81.048C207.605 81.576 207.797 82.248 207.797 83.064C207.797 83.864 207.613 84.56 207.245 85.152C206.893 85.744 206.341 86.2 205.589 86.52C204.837 86.84 203.869 87 202.685 87H196.853V74.136H198.965V79.416H202.781ZM205.685 83.184C205.685 82.4 205.405 81.872 204.845 81.6C204.301 81.312 203.533 81.168 202.541 81.168H198.965V85.296H202.589C203.485 85.296 204.221 85.136 204.797 84.816C205.389 84.496 205.685 83.952 205.685 83.184ZM228.551 74.136V87H211.103V74.136H213.215V85.224H218.759V74.136H220.871V85.224H226.439V74.136H228.551ZM237.633 73.896C238.737 73.896 239.681 74.136 240.465 74.616C241.265 75.096 241.873 75.776 242.289 76.656C242.721 77.52 242.937 78.536 242.937 79.704V80.976H234.129C234.161 82.432 234.529 83.544 235.233 84.312C235.953 85.064 236.953 85.44 238.233 85.44C239.049 85.44 239.769 85.368 240.393 85.224C241.033 85.064 241.689 84.84 242.361 84.552V86.4C241.705 86.688 241.057 86.896 240.417 87.024C239.777 87.168 239.017 87.24 238.137 87.24C236.921 87.24 235.841 86.992 234.897 86.496C233.969 86 233.241 85.264 232.713 84.288C232.201 83.296 231.945 82.088 231.945 80.664C231.945 79.256 232.177 78.048 232.641 77.04C233.121 76.032 233.785 75.256 234.633 74.712C235.497 74.168 236.497 73.896 237.633 73.896ZM237.609 75.624C236.601 75.624 235.801 75.952 235.209 76.608C234.633 77.248 234.289 78.144 234.177 79.296H240.729C240.729 78.56 240.617 77.92 240.393 77.376C240.169 76.832 239.825 76.408 239.361 76.104C238.913 75.784 238.329 75.624 237.609 75.624ZM246.98 81.552C246.98 80.96 247.068 80.4 247.244 79.872C247.436 79.328 247.78 78.704 248.276 78C248.852 77.184 249.244 76.48 249.452 75.888C249.66 75.296 249.764 74.672 249.764 74.016C249.764 73.44 249.652 73.024 249.428 72.768C249.204 72.496 248.876 72.36 248.444 72.36C248.012 72.36 247.684 72.496 247.46 72.768C247.236 73.024 247.124 73.44 247.124 74.016V75.84H244.628V74.184C244.628 72.824 244.956 71.784 245.612 71.064C246.268 70.328 247.228 69.96 248.492 69.96C249.772 69.96 250.74 70.328 251.396 71.064C252.068 71.784 252.404 72.824 252.404 74.184C252.404 74.92 252.268 75.632 251.996 76.32C251.74 76.992 251.292 77.752 250.652 78.6C250.14 79.288 249.78 79.864 249.572 80.328C249.38 80.776 249.284 81.216 249.284 81.648V82.56H246.98V81.552ZM246.86 84.456H249.404V87H246.86V84.456Z" fill="white" fill-opacity="0.7"/>
<path d="M18.816 54L10.56 27.12H10.368C10.4 27.76 10.448 28.72 10.512 30C10.576 31.28 10.64 32.656 10.704 34.128C10.768 35.568 10.8 36.88 10.8 38.064V54H4.32V19.728H14.208L22.32 45.936H22.464L31.056 19.728H40.944V54H34.176V37.776C34.176 36.688 34.192 35.44 34.224 34.032C34.288 32.624 34.336 31.296 34.368 30.048C34.432 28.768 34.48 27.808 34.512 27.168H34.32L25.488 54H18.816ZM69.3293 54H49.6013V19.728H69.3293V25.68H56.8493V33.216H68.4653V39.168H56.8493V48H69.3293V54ZM103.293 19.728V47.952H107.853V63.984H100.845V54H79.3886V63.984H72.3806V47.952H75.0206C75.9166 46.16 76.7806 44.272 77.6126 42.288C78.4446 40.304 79.2126 38.176 79.9166 35.904C80.6526 33.632 81.3086 31.168 81.8846 28.512C82.4606 25.824 82.9406 22.896 83.3246 19.728H103.293ZM89.0846 25.776C88.8606 27.44 88.5406 29.216 88.1246 31.104C87.7086 32.96 87.2126 34.864 86.6366 36.816C86.0926 38.768 85.4846 40.688 84.8126 42.576C84.1406 44.464 83.4206 46.256 82.6526 47.952H96.0446V25.776H89.0846ZM113.117 19.728H119.645V36.288C119.645 37.088 119.629 37.984 119.597 38.976C119.565 39.968 119.533 40.944 119.501 41.904C119.469 42.832 119.437 43.648 119.405 44.352C119.373 45.024 119.341 45.488 119.309 45.744H119.453L135.293 19.728H143.981V54H137.501V37.536C137.501 36.672 137.517 35.728 137.549 34.704C137.581 33.648 137.613 32.64 137.645 31.68C137.709 30.72 137.757 29.888 137.789 29.184C137.853 28.448 137.901 27.968 137.933 27.744H137.741L121.853 54H113.117V19.728ZM173.609 54L171.113 45.84H158.633L156.137 54H148.312L160.409 19.584H169.289L181.433 54H173.609ZM166.889 31.776C166.729 31.232 166.521 30.544 166.265 29.712C166.009 28.88 165.753 28.032 165.497 27.168C165.241 26.304 165.033 25.552 164.873 24.912C164.713 25.552 164.489 26.352 164.201 27.312C163.945 28.24 163.689 29.136 163.433 30C163.209 30.832 163.033 31.424 162.905 31.776L160.457 39.744H169.385L166.889 31.776ZM184.333 40.896V40.704H195.853V40.896H184.333ZM203.023 54V19.728H230.143V54H222.895V25.776H210.271V54H203.023ZM259.765 54L257.269 45.84H244.789L242.293 54H234.469L246.565 19.584H255.445L267.589 54H259.765ZM253.045 31.776C252.885 31.232 252.677 30.544 252.421 29.712C252.165 28.88 251.909 28.032 251.653 27.168C251.397 26.304 251.189 25.552 251.029 24.912C250.869 25.552 250.645 26.352 250.357 27.312C250.101 28.24 249.845 29.136 249.589 30C249.365 30.832 249.189 31.424 249.061 31.776L246.613 39.744H255.541L253.045 31.776ZM299.865 54H291.609L279.177 36.624V54H271.929V19.728H279.177V36.336L291.465 19.728H299.193L286.713 36.192L299.865 54ZM314.979 44.4H312.627L313.011 40.656H315.363L316.275 31.872H313.875L314.259 28.128H316.659L317.475 20.4H321.651L320.835 28.128H324.243L325.059 20.4H329.235L328.419 28.128H330.867L330.483 31.872H328.035L327.123 40.656H329.571L329.187 44.4H326.739L325.731 54H321.555L322.563 44.4H319.155L318.147 54H313.971L314.979 44.4ZM322.947 40.656L323.859 31.872H320.451L319.539 40.656H322.947ZM341.241 54.48C338.649 54.48 336.665 53.744 335.289 52.272C333.913 50.8 333.225 48.72 333.225 46.032V28.368C333.225 25.68 333.913 23.6 335.289 22.128C336.665 20.656 338.649 19.92 341.241 19.92C343.833 19.92 345.817 20.656 347.193 22.128C348.569 23.6 349.257 25.68 349.257 28.368V46.032C349.257 48.72 348.569 50.8 347.193 52.272C345.817 53.744 343.833 54.48 341.241 54.48ZM341.241 49.68C343.065 49.68 343.977 48.576 343.977 46.368V28.032C343.977 25.824 343.065 24.72 341.241 24.72C339.417 24.72 338.505 25.824 338.505 28.032V46.368C338.505 48.576 339.417 49.68 341.241 49.68ZM360.219 28.368H354.699V24.624C356.203 24.624 357.403 24.496 358.299 24.24C359.227 23.984 359.963 23.568 360.507 22.992C361.051 22.384 361.531 21.52 361.947 20.4H365.499V54H360.219V28.368ZM379.678 54.48C377.086 54.48 375.102 53.744 373.726 52.272C372.35 50.8 371.662 48.72 371.662 46.032V28.368C371.662 25.68 372.35 23.6 373.726 22.128C375.102 20.656 377.086 19.92 379.678 19.92C382.27 19.92 384.254 20.656 385.63 22.128C387.006 23.6 387.694 25.68 387.694 28.368V46.032C387.694 48.72 387.006 50.8 385.63 52.272C384.254 53.744 382.27 54.48 379.678 54.48ZM379.678 49.68C381.502 49.68 382.414 48.576 382.414 46.368V28.032C382.414 25.824 381.502 24.72 379.678 24.72C377.854 24.72 376.942 25.824 376.942 28.032V46.368C376.942 48.576 377.854 49.68 379.678 49.68ZM398.657 28.368H393.137V24.624C394.641 24.624 395.841 24.496 396.737 24.24C397.665 23.984 398.401 23.568 398.945 22.992C399.489 22.384 399.969 21.52 400.385 20.4H403.937V54H398.657V28.368Z" fill="white"/>
</svg>
