<svg width="33" height="36" viewBox="0 0 33 36" fill="none" xmlns="http://www.w3.org/2000/svg">
<path d="M8.6 35.48C6.008 35.48 4.024 34.744 2.648 33.272C1.272 31.8 0.584 29.72 0.584 27.032V9.368C0.584 6.68 1.272 4.6 2.648 3.128C4.024 1.656 6.008 0.919998 8.6 0.919998C11.192 0.919998 13.176 1.656 14.552 3.128C15.928 4.6 16.616 6.68 16.616 9.368V27.032C16.616 29.72 15.928 31.8 14.552 33.272C13.176 34.744 11.192 35.48 8.6 35.48ZM8.6 30.68C10.424 30.68 11.336 29.576 11.336 27.368V9.032C11.336 6.824 10.424 5.72 8.6 5.72C6.776 5.72 5.864 6.824 5.864 9.032V27.368C5.864 29.576 6.776 30.68 8.6 30.68ZM27.5788 9.368H22.0588V5.624C23.5628 5.624 24.7628 5.496 25.6588 5.24C26.5868 4.984 27.3228 4.568 27.8668 3.992C28.4108 3.384 28.8908 2.52 29.3068 1.4H32.8588V35H27.5788V9.368Z" fill="#A61515"/>
</svg>
