<svg width="36" height="36" viewBox="0 0 36 36" fill="none" xmlns="http://www.w3.org/2000/svg">
<path d="M8.6 35.48C6.008 35.48 4.024 34.744 2.648 33.272C1.272 31.8 0.584 29.72 0.584 27.032V9.368C0.584 6.68 1.272 4.6 2.648 3.128C4.024 1.656 6.008 0.919998 8.6 0.919998C11.192 0.919998 13.176 1.656 14.552 3.128C15.928 4.6 16.616 6.68 16.616 9.368V27.032C16.616 29.72 15.928 31.8 14.552 33.272C13.176 34.744 11.192 35.48 8.6 35.48ZM8.6 30.68C10.424 30.68 11.336 29.576 11.336 27.368V9.032C11.336 6.824 10.424 5.72 8.6 5.72C6.776 5.72 5.864 6.824 5.864 9.032V27.368C5.864 29.576 6.776 30.68 8.6 30.68ZM20.0908 31.352C20.0908 28.952 20.4748 26.904 21.2428 25.208C22.0108 23.48 23.3868 21.576 25.3708 19.496C27.3228 17.416 28.6668 15.64 29.4028 14.168C30.1708 12.696 30.5547 11.16 30.5547 9.56C30.5547 8.12 30.3148 7.128 29.8348 6.584C29.3868 6.008 28.7148 5.72 27.8188 5.72C25.9948 5.72 25.0828 6.824 25.0828 9.032V12.632H20.0908V9.368C20.0908 6.648 20.7628 4.568 22.1068 3.128C23.4508 1.656 25.4028 0.919998 27.9628 0.919998C30.5228 0.919998 32.4748 1.656 33.8188 3.128C35.1628 4.568 35.8348 6.648 35.8348 9.368C35.8348 11.416 35.3388 13.416 34.3468 15.368C33.3868 17.32 31.7068 19.56 29.3068 22.088C27.7388 23.752 26.6828 25.112 26.1388 26.168C25.5948 27.192 25.3228 28.296 25.3228 29.48V30.2H35.3548V35H20.0908V31.352Z" fill="#A61515"/>
</svg>
