<svg width="36" height="36" viewBox="0 0 36 36" fill="none" xmlns="http://www.w3.org/2000/svg">
<path d="M8.6 35.48C6.008 35.48 4.024 34.744 2.648 33.272C1.272 31.8 0.584 29.72 0.584 27.032V9.368C0.584 6.68 1.272 4.6 2.648 3.128C4.024 1.656 6.008 0.919998 8.6 0.919998C11.192 0.919998 13.176 1.656 14.552 3.128C15.928 4.6 16.616 6.68 16.616 9.368V27.032C16.616 29.72 15.928 31.8 14.552 33.272C13.176 34.744 11.192 35.48 8.6 35.48ZM8.6 30.68C10.424 30.68 11.336 29.576 11.336 27.368V9.032C11.336 6.824 10.424 5.72 8.6 5.72C6.776 5.72 5.864 6.824 5.864 9.032V27.368C5.864 29.576 6.776 30.68 8.6 30.68ZM27.6748 35.48C25.0828 35.48 23.1148 34.76 21.7708 33.32C20.4588 31.88 19.8027 29.816 19.8027 27.128V24.392H24.7948V27.368C24.7948 29.576 25.7068 30.68 27.5308 30.68C28.4268 30.68 29.0988 30.408 29.5468 29.864C30.0268 29.288 30.2668 28.296 30.2668 26.888V24.152C30.2668 22.616 29.9948 21.528 29.4508 20.888C28.9068 20.216 28.0268 19.88 26.8108 19.88H25.0348V15.08H26.9548C28.0108 15.08 28.7948 14.808 29.3068 14.264C29.8508 13.72 30.1228 12.808 30.1228 11.528V9.08C30.1228 7.928 29.8828 7.08 29.4028 6.536C28.9228 5.992 28.2828 5.72 27.4828 5.72C25.7868 5.72 24.9388 6.76 24.9388 8.84V11.048H19.9468V9.272C19.9468 6.584 20.6028 4.52 21.9148 3.08C23.2588 1.64 25.1788 0.919998 27.6748 0.919998C30.2028 0.919998 32.1228 1.64 33.4348 3.08C34.7468 4.488 35.4028 6.536 35.4028 9.224V10.424C35.4028 12.248 35.0988 13.72 34.4908 14.84C33.8828 15.928 32.9388 16.712 31.6588 17.192V17.288C33.0348 17.8 34.0268 18.632 34.6348 19.784C35.2428 20.936 35.5468 22.408 35.5468 24.2V27.176C35.5468 29.864 34.8748 31.928 33.5308 33.368C32.2188 34.776 30.2668 35.48 27.6748 35.48Z" fill="#A61515"/>
</svg>
